<svg width="117" height="23" viewBox="0 0 117 23" fill="none" xmlns="http://www.w3.org/2000/svg">
<path d="M31.1475 18.3089C29.7847 18.3089 28.5891 18.0014 27.5645 17.3876C26.5385 16.7738 25.7321 15.9164 25.1451 14.8164C24.5581 13.7165 24.2646 12.4379 24.2646 10.9794C24.2646 9.52091 24.5581 8.26274 25.1451 7.16281C25.7321 6.06287 26.5385 5.20283 27.5645 4.5814C28.5904 3.96125 29.7847 3.6499 31.1475 3.6499C32.5103 3.6499 33.7353 3.95998 34.7817 4.5814C35.828 5.20283 36.637 6.06287 37.2112 7.16281C37.7842 8.26274 38.0713 9.53494 38.0713 10.9794C38.0713 12.4239 37.7842 13.7165 37.2112 14.8164C36.637 15.9164 35.828 16.7738 34.7817 17.3876C33.7353 18.0014 32.5244 18.3089 31.1475 18.3089ZM31.1475 16.5072C32.1326 16.5072 32.9901 16.2839 33.7187 15.8385C34.4474 15.3932 35.0114 14.759 35.4095 13.9347C35.8076 13.1116 36.0067 12.1266 36.0067 10.9781C36.0067 9.82971 35.8076 8.84589 35.4095 8.02157C35.0114 7.19854 34.4474 6.5669 33.7187 6.12795C32.9901 5.689 32.1326 5.46952 31.1475 5.46952C30.1625 5.46952 29.3483 5.689 28.6274 6.12795C27.9052 6.5669 27.3412 7.19726 26.9367 8.02157C26.5322 8.84461 26.3293 9.83098 26.3293 10.9781C26.3293 12.1253 26.5322 13.1116 26.9367 13.9347C27.3412 14.7577 27.9052 15.3919 28.6274 15.8385C29.3496 16.2839 30.1892 16.5072 31.1475 16.5072Z" fill="#666666"/>
<path d="M38.8618 22.0004V7.86201H40.684L40.8869 9.44174C41.0898 9.13166 41.3552 8.83817 41.6869 8.56128C42.0174 8.28438 42.4053 8.05852 42.8507 7.88243C43.296 7.70761 43.823 7.61957 44.4304 7.61957C45.4155 7.61957 46.2755 7.85181 47.0118 8.31756C47.7468 8.78331 48.321 9.41749 48.7332 10.2214C49.1453 11.024 49.3508 11.9453 49.3508 12.9853C49.3508 14.0252 49.1415 14.9261 48.723 15.7287C48.3044 16.5313 47.7277 17.163 46.9914 17.6211C46.2551 18.0804 45.3951 18.3101 44.41 18.3101C43.6137 18.3101 42.9145 18.1506 42.3147 17.8342C41.7137 17.5177 41.2378 17.0749 40.8869 16.5084V22.0017H38.8618V22.0004ZM44.105 16.5479C44.7124 16.5479 45.256 16.3999 45.7345 16.1026C46.213 15.8053 46.592 15.3906 46.8689 14.8572C47.1458 14.3238 47.2836 13.6998 47.2836 12.984C47.2836 12.2681 47.1445 11.6237 46.8689 11.0904C46.592 10.557 46.2143 10.1384 45.7345 9.83475C45.2547 9.53106 44.7124 9.37921 44.105 9.37921C43.4568 9.37921 42.8928 9.53106 42.4143 9.83475C41.9345 10.1384 41.5644 10.557 41.3003 11.0904C41.0374 11.6237 40.906 12.2541 40.906 12.984C40.906 13.7139 41.0374 14.32 41.3003 14.847C41.5632 15.374 41.9345 15.7887 42.4143 16.0924C42.8928 16.3961 43.4568 16.5479 44.105 16.5479Z" fill="#666666"/>
<path d="M55.12 18.3088C54.1477 18.3088 53.2876 18.0855 52.5386 17.6402C51.7896 17.1949 51.2026 16.5734 50.7777 15.7772C50.3527 14.981 50.1396 14.0495 50.1396 12.9827C50.1396 11.9159 50.3451 10.9819 50.7572 10.178C51.1694 9.37537 51.7564 8.74756 52.5182 8.29457C53.28 7.84286 54.1617 7.61572 55.1608 7.61572C56.16 7.61572 57.0162 7.83903 57.732 8.28436C58.4479 8.72969 58.9978 9.31667 59.3819 10.0453C59.766 10.7739 59.9587 11.5842 59.9587 12.4748V12.9202C59.9587 13.0822 59.9447 13.2507 59.9179 13.4268H51.6173V12.0091H57.954C57.9132 11.172 57.6299 10.511 57.1042 10.0249C56.5785 9.5387 55.9226 9.29625 55.1404 9.29625C54.5866 9.29625 54.08 9.4213 53.6219 9.6714C53.1626 9.92151 52.7989 10.2852 52.5284 10.765C52.2579 11.2447 52.1239 11.8483 52.1239 12.5769V13.1435C52.1239 13.8989 52.2591 14.5343 52.5284 15.0473C52.7989 15.5603 53.1587 15.952 53.6117 16.2213C54.0634 16.4918 54.5662 16.6258 55.12 16.6258C55.7682 16.6258 56.3041 16.4841 56.7291 16.2008C57.154 15.9176 57.4615 15.5322 57.6504 15.0473H59.6754C59.4993 15.6687 59.2033 16.2251 58.7847 16.7176C58.3662 17.2102 57.8532 17.5981 57.2459 17.8814C56.6385 18.1646 55.9303 18.3063 55.12 18.3063V18.3088Z" fill="#666666"/>
<path d="M60.8346 18.2425V8.0381H62.6567L62.778 9.77988C63.1021 9.15973 63.5576 8.67356 64.1446 8.32265C64.7316 7.97175 65.4168 7.79565 66.199 7.79565C67.022 7.79565 67.7239 7.95771 68.3044 8.28182C68.885 8.60593 69.3329 9.09465 69.6507 9.74925C69.9671 10.4039 70.1266 11.2243 70.1266 12.2094V18.2425H68.1016V12.411C68.1016 11.4668 67.8923 10.7471 67.4738 10.2546C67.0552 9.76201 66.4478 9.51574 65.6516 9.51574C65.1259 9.51574 64.6525 9.64462 64.2339 9.89982C63.8154 10.1563 63.4811 10.5276 63.2322 11.0138C62.9821 11.5 62.8571 12.0933 62.8571 12.7951V18.2412H60.832L60.8346 18.2425Z" fill="#666666"/>
<path d="M73.146 18.2425L70.1499 8.03809H72.175L74.4016 16.5415H74.0367L76.4662 8.03809H78.7337L81.2245 16.5211L80.8405 16.5415L83.0467 8.03809H85.0718L82.0961 18.2425H80.0111L77.4399 9.3945H77.8444L75.2323 18.2425H73.1473H73.146Z" fill="#666666"/>
<path d="M89.9902 18.4849C89.0179 18.4849 88.1476 18.2616 87.3782 17.8163C86.6088 17.371 86.0077 16.747 85.5764 15.9431C85.1439 15.1405 84.9282 14.2115 84.9282 13.1588C84.9282 12.1061 85.1477 11.1376 85.5866 10.3349C86.0256 9.53232 86.6292 8.90706 87.3986 8.46173C88.1681 8.0164 89.0319 7.79309 89.9902 7.79309C90.9485 7.79309 91.8252 8.0164 92.5818 8.46173C93.3372 8.90706 93.9383 9.52849 94.3836 10.3247C94.8289 11.121 95.0522 12.0589 95.0522 13.1396C95.0522 14.2204 94.8289 15.1405 94.3836 15.9444C93.9383 16.747 93.3334 17.3722 92.5716 17.8176C91.8086 18.2629 90.9485 18.4862 89.9902 18.4862V18.4849ZM89.9698 16.7444C90.5096 16.7444 91.0059 16.6092 91.4577 16.3399C91.9094 16.0707 92.2781 15.6649 92.5614 15.1251C92.8447 14.5854 92.9863 13.9244 92.9863 13.1409C92.9863 12.3574 92.8472 11.6799 92.5716 11.1465C92.2947 10.6131 91.9336 10.2124 91.4883 9.94192C91.0429 9.67268 90.5504 9.53742 90.0106 9.53742C89.4709 9.53742 88.9707 9.67268 88.5126 9.94192C88.0532 10.2124 87.6857 10.6131 87.4088 11.1465C87.1319 11.6799 86.9941 12.3447 86.9941 13.1409C86.9941 13.9372 87.1319 14.5854 87.4088 15.1251C87.6857 15.6649 88.0468 16.0707 88.4922 16.3399C88.9375 16.6104 89.4301 16.7444 89.9698 16.7444Z" fill="#666666"/>
<path d="M95.9534 18.2425V8.0381H97.7756L97.9376 9.96107C98.1801 9.50298 98.4812 9.11379 98.8385 8.79734C99.1958 8.48088 99.6284 8.23333 100.134 8.05852C100.64 7.8837 101.203 7.79565 101.824 7.79565V9.92152H101.096C100.677 9.92152 100.279 9.97511 99.9014 10.0836C99.5237 10.192 99.1933 10.3669 98.9087 10.6106C98.6254 10.853 98.3996 11.181 98.2299 11.5931C98.0614 12.0053 97.9772 12.5284 97.9772 13.1626V18.245H95.9521L95.9534 18.2425Z" fill="#666666"/>
<path d="M102.665 18.2425V3.66516H104.69V18.2425H102.665ZM109.083 18.2425L104.386 12.6548L108.659 8.03811H111.088L106.047 13.4242L106.026 11.9262L111.634 18.2425H109.083Z" fill="#666666"/>
<path d="M112.623 16.3823V16.0174H114.135V16.3823H113.609V18.1216H113.149V16.3823H112.623ZM114.452 18.1216V16.0187H115.049L115.682 17.5716L116.345 16.0187H116.9V18.1216H116.477V16.6159L115.826 18.1216H115.503L114.864 16.6044V18.1216H114.452Z" fill="#666666"/>
<path d="M11.8739 21.2858L13.7191 14.3646C13.7586 14.2179 13.6004 14.098 13.4702 14.1745L7.27513 17.7704C7.15646 17.8393 7.16411 18.0115 7.28789 18.0702L9.1075 18.9354C9.20448 18.9813 9.23511 19.1064 9.17003 19.1919L7.56861 21.2871C7.51119 21.3611 7.52651 21.4683 7.60052 21.5244L8.16835 21.9583C8.24236 22.0157 8.34954 22.0004 8.40569 21.9264L10.0071 19.8311C10.0722 19.7457 10.2011 19.7418 10.2712 19.8235L11.583 21.3522C11.6723 21.4555 11.8408 21.4172 11.8752 21.2858H11.8739Z" fill="#666666"/>
<path d="M2.43725 17.0506L9.35332 15.1876C9.49879 15.1481 9.52431 14.9516 9.39416 14.8763L3.18245 11.3098C3.06378 11.2422 2.91831 11.334 2.92852 11.4706L3.0893 13.479C3.09823 13.5862 3.00508 13.6743 2.8979 13.6615L0.282039 13.3221C0.188889 13.3106 0.103395 13.3757 0.0919112 13.4688L0.0013132 14.1758C-0.0101711 14.2689 0.0549064 14.3544 0.148056 14.3659L2.76391 14.7053C2.8711 14.7193 2.93745 14.8278 2.90172 14.9299L2.23309 16.8299C2.18715 16.9588 2.30582 17.0851 2.43725 17.0506Z" fill="#666666"/>
<path d="M1.38812 6.76078L6.46033 11.819C6.56752 11.9261 6.74999 11.8496 6.74999 11.699L6.7334 4.53538C6.7334 4.39885 6.58028 4.31846 6.46671 4.3963L4.80788 5.53962C4.71856 5.60087 4.59606 5.56514 4.55522 5.46561L3.54078 3.03095C3.50505 2.94418 3.40552 2.90334 3.31875 2.93907L2.65905 3.21342C2.57228 3.24915 2.53144 3.34868 2.56717 3.43545L3.58161 5.87011C3.62372 5.96964 3.56247 6.08193 3.45656 6.10235L1.47617 6.47367C1.34218 6.49919 1.29114 6.6638 1.38812 6.76078Z" fill="#666666"/>
<path d="M9.77417 0.707383L7.92903 7.62856C7.88948 7.7753 8.0477 7.89525 8.17786 7.81869L14.373 4.22284C14.4916 4.15393 14.484 3.98167 14.3602 3.92297L12.5406 3.05783C12.4436 3.01189 12.413 2.88684 12.4781 2.80134L14.0795 0.706107C14.1369 0.632097 14.1216 0.524911 14.0476 0.468766L13.4798 0.0349162C13.4057 -0.022505 13.2986 -0.00719271 13.2424 0.0668169L11.641 2.16206C11.5759 2.24755 11.447 2.25138 11.3769 2.16971L10.0651 0.64103C9.97578 0.537671 9.80735 0.575952 9.77289 0.707383H9.77417Z" fill="#666666"/>
<path d="M19.2103 4.94379L12.2942 6.80679C12.1487 6.84635 12.1232 7.04286 12.2534 7.11814L18.4651 10.6846C18.5838 10.7523 18.7292 10.6604 18.719 10.5239L18.5582 8.5154C18.5493 8.40821 18.6425 8.32016 18.7496 8.33292L21.3655 8.67235C21.4586 8.68383 21.5441 8.61875 21.5556 8.5256L21.6475 7.81741C21.659 7.72426 21.5939 7.63876 21.5008 7.62728L18.8849 7.28786C18.7777 7.27382 18.7114 7.16536 18.7471 7.06328L19.4157 5.16327C19.4617 5.03439 19.343 4.90806 19.2116 4.94252L19.2103 4.94379Z" fill="#666666"/>
<path d="M20.2593 15.2337L15.1871 10.1755C15.0799 10.0683 14.8975 10.1449 14.8975 10.2954L14.914 17.459C14.914 17.5956 15.0672 17.676 15.1807 17.5981L16.8396 16.4548C16.9289 16.3936 17.0514 16.4293 17.0922 16.5288L18.1067 18.9635C18.1424 19.0503 18.2419 19.0911 18.3287 19.0554L18.9884 18.781C19.0752 18.7453 19.116 18.6458 19.0803 18.559L18.0658 16.1243C18.0237 16.0248 18.085 15.9125 18.1909 15.8921L20.1713 15.5208C20.3053 15.4952 20.3563 15.3306 20.2593 15.2337Z" fill="#666666"/>
</svg>
